# xmcd
#
# Track frame offsets: 
#        150
#        14685
#        28840
#        46070
#        57878
#        70559
#        86188
#        102727
#        117347
#        140895
#        157835
#        172784
#        188472
#        206797
#        225348
#
# Disc length: 3286 seconds
#
# Revision: 1
# Processed by: cddbd v1.5.2PL0 Copyright (c) Steve Scherf et al.
# Submitted via: ExactAudioCopyFreeDBPlugin 1.0
#
DISCID=c60cd40f
DTITLE=Toby Keith - Clancy's Tavern
DYEAR=2011
DGENRE=Country
TTITLE0=Made in America
TTITLE1=I Need to hear a Country Song
TTITLE2=Clancy's Tavern
TTITLE3=Try'in to Fall in Love
TTITLE4=Just Another Sundown
TTITLE5=Beers Ago
TTITLE6=South of You
TTITLE7=Club Zydeco Moon
TTITLE8=I Won't Let You Down
TTITLE9=Red Solo Cup
TTITLE10=Chill-Axin
TTITLE11=High Time (You Quit) Live
TTITLE12=Truck Drivin' Man (Live)
TTITLE13=Shambala (Live)
TTITLE14=Memphis (Live)
EXTD=
EXTT0=
EXTT1=
EXTT2=
EXTT3=
EXTT4=
EXTT5=
EXTT6=
EXTT7=
EXTT8=
EXTT9=
EXTT10=
EXTT11=
EXTT12=
EXTT13=
EXTT14=
PLAYORDER=
